<svg id="costa-rica-map" viewBox="300 50 600 550" class="w-full h-auto max-w-md drop-shadow-sm" xmlns="http://www.w3.org/2000/svg">
    <g stroke="#ffffff" stroke-linecap="round" stroke-linejoin="round" stroke-width="3">
        <!-- Alajuela -->
        <path id="Alajuela" class="province-path fill-slate-200" d="M607.7 113.2l0 0.7-0.4 34.3-0.3 25.8-0.3 18.4-0.2 22-1.9 24.3 0 0.4-2.9 3.1-0.8 1.2-0.1 0.5 0 0.5 0 0.8 0.3 1.4-2.3 2.6-4.4 1.4-10.6 3-2.8 0.4-0.8-0.3-1.9-0.2-0.8-0.2-0.6-0.2-3.1-0.5-3.1-0.9-3.8 0.8-7 0.5-4.9 2.2-1.3 0.8-0.1 0.2-0.2 0.4-1.9 1.8-2.7 1.4-1 0.8-0.5 0.6 0.1 0.4-0.1 0.5-2.9 3.7-0.3 0.6-0.2 1.2-0.3 0.3-1.1 0-3.4-4.6-1.5-1.1-1.8-0.4-2.1-0.1-2.6-0.7-3.3-1.3-1.1-0.8-0.5-0.6 0.2-0.8 0-1 0.1-0.4 0.2-0.4 0.3-0.2 1.1-0.5 2.9-4.6 1.2-1.2 1.8-0.5 7.8-5.1 2.4-1 0.8-0.4 0.5-0.5 0.2-0.4 0.1-1.1-2-3.3-1.1-0.6-0.4 0.2-1.3 0.9-1.2 0.4-0.5 0-0.3-0.1-0.2-0.3-0.2-0.5-0.1-0.3-1-1.6-2.6-3.1-1.3-2.1-2.5-3.2-1-1.4-1.7-3.7-0.7-2.5 0.6-4.1-0.1-0.6-0.2-0.9-0.8-1.6-0.2-0.6 0-0.6 1-3.6 0.4-1.2 1.7-3.1 0.2-0.8-0.1-0.6-0.2-0.2-1-0.8-0.6-0.9-0.9-2.5-2.8-1.8-1.2-0.2-0.4 0.2-0.4 0.1-1 0.6-2.2 0.7-3 0.5-1.3 0.1-0.9-0.1-1-0.7-0.3-0.2-1-1.2-3.5-5.7 2.5-4.8 0.3-1.6-0.4-0.7-0.2-0.3-0.5-1.1-0.6-3 2.4-8.8-3.4-6.9-1.2-1.9-9-7-2.9-1.4-8.6-2.3-2.2-0.9-1.7-1.9-4.2-3.7-0.5-0.6-0.9-1.4-0.5-1.1-0.7-4.3-1.8-3.3-2.3-3.6-0.9-1-1-0.7-2.2-0.9-1.7-0.5-8.4-2-2.5-0.8-1-0.8-1.1-1.1-4.7-3.2-1.2-0.6-1-0.4-1-0.1-1 0.1-2 0.2-3.4 0.9-4.1 0.3-4.8-0.1-3.8-7.8-1.4-2.1-0.7-0.5-0.4-0.2-0.4-0.2-0.4-0.1-3.5-0.5-1-0.3-3.8-2.3-1.8-1.3-7.2-8.4-0.2-0.3-0.3-0.6-0.1-0.5 0.1-0.3 0.6-0.7 5.4-0.4 1.4-0.7 0.5-0.7 0.3-0.7 12.4-8.5 7.5-8.5 0.6-0.5 0.4-0.1 0.6-0.1 1-0.3 1.2-0.3 0.3-0.3 22.7 8.4 25.5 9.5 3.6 0.4 3.7-1.4 16.3-10.8 11.7-7.7 5-1.2 2.8 1.2 6 4.4 2.7 0.4 3.4-0.2 3.7 1.2 7.8 3.4 0.9 0.3 0.8 0.3 0.8 0.4 0.6 0.5 3.6 4.5 1.4 1.1 1.4 0.9 1.7 0.6 1.7 0.2 1.5-0.6 8.5-5.6 1.3-0.8 1.5 0.8 0.4 1.2 0 1.6 0.3 2 0.7 1.1 2.1 2.7 0.4 1.1 1.7 1.6 7.3 2.8 1.7 1.2 1.4 1.5 3 1.6 2.8 2.3 0.5 3.8-2.1 1.2-0.7 0.4-0.7 1.3 0.3 0.9 0.6 0.7 0.4 0.5 3.5 2.8 0.8 1.1 1.8-1.3 2.4 0.1 1.1 0.1z"></path>
        <!-- Guanacaste -->
        <path id="Guanacaste" class="province-path fill-slate-200" d="M437.4 70.7l-0.3 0.3-1.2 0.3-1 0.3-0.6 0.1-0.4 0.1-0.6 0.5-7.5 8.5-12.4 8.5-0.3 0.7-0.5 0.7-1.4 0.7-5.4 0.4-0.6 0.7-0.1 0.3 0.1 0.5 0.3 0.6 0.2 0.3 7.2 8.4 1.8 1.3 3.8 2.3 1 0.3 3.5 0.5 0.4 0.1 0.4 0.2 0.4 0.2 0.7 0.5 1.4 2.1 3.8 7.8 4.8 0.1 4.1-0.3 3.4-0.9 2-0.2 1-0.1 1 0.1 1 0.4 1.2 0.6 4.7 3.2 1.1 1.1 1 0.8 2.5 0.8 8.4 2 1.7 0.5 2.2 0.9 1 0.7 0.9 1 2.3 3.6 1.8 3.3 0.7 4.3 0.5 1.1 0.9 1.4 0.5 0.6 4.2 3.7 1.7 1.9 2.2 0.9 8.6 2.3 2.9 1.4 9 7 1.2 1.9 3.4 6.9-2.4 8.8 0.6 3 0.5 1.1 0.2 0.3 0.4 0.7-0.3 1.6-2.5 4.8-2.5-2-0.7-0.3-0.9-0.3-0.8-0.1-1.2 0.1-0.7 0.1-0.5 0.2-0.9 0.7-1.4 1.4-0.6 0.5-1.4 0.8-0.9 0.6-0.7 0.7-0.5 0.7-0.3 0.5-0.1 0.5 0 0.5 0.1 0.4 0.2 0.3 0.2 0.4 1.2 1 0.2 0.3 0.1 0.5 0.1 0.4-0.1 0.4-0.7 2.1-0.4 3.1-0.1 0.5-1 2-0.1 0.6 0 0.4 0.1 0.4 0.1 0.4 0.2 0.3 0.5 0.6 0.3 0.4 0.1 0.6-0.1 1.2-0.3 0.5-0.3 0.5-3 1.3-0.7 0.4-2.9 2.6-0.7 0.9-0.4 0.7-0.2 1 0 0.5 0.2 0.9 0.6 1.7 0.1 0.6-0.3 0.3-0.4 0-0.4-0.1-0.4-0.1-1.5-0.8-1.2-1-0.6-0.6-1.9-2.4-1.2-1-0.3-0.3-1.4-0.8-0.8-0.3-0.5-0.1-0.5 0-0.6 0.1-0.8 0.3-0.3 0-0.4 0-0.4-0.1-0.4-0.1-0.3-0.3-0.6-0.4-0.3-0.2-0.5-0.1-0.4 0-0.9 0.2-1 0.1-0.5 0-0.5-0.1-1.3-0.1-3.1 1-0.7-0.5-0.6-0.3-2.1-1.9-2.9 1-10.6 0.1-2.9-0.7-2.5-1.8-3.9-4.1 0-1 0.9-3-2.8-3.3-6.8-4.8 1 3.3 4.6 3.3 1 3.9 0.4 7.5 1 4.3 1.8 3-2 1.3 0.3 2.3 1.8 2.1 4.9 1.7 1.7 1.8 2 4 1 0 1.3-0.5 0.6 0.4 0.2 1.1-1.4 0.1-1.4-0.1-1.3-0.4-1.2-0.6 0 1 3 2.7-1.6 5.2-1 1.3-3.4 0.8-0.8 0.4-4.1 2.3-0.7 0.2-0.4-0.1-0.3-0.3-0.2-0.3-0.3-0.2-1.1 0.1-1.6 0.5-3.9 1.9-1.4 1.3-0.7 1.3 0.3 0.9 0.5 0.7 0.6 0.5 0.7 0.4 0.6 0.1 1.5-0.2 0.5 0 0.5 0 1.4 0.3 0.4 0.1 0.7 0.4 0.4 0.2 0.4 0.1 1.5 0 0.9 0.2 1.1 0.6 1.2 0.4 0.3 0.2 0.3 0.2 0.7 1 0.9 0.8 0.4 0.7 0.2 0.3 0.2 0.4 0.3 0.7 0.2 1 0.2 0.9 0.2 0.3 0.3 0.2 0.4 0.2 2.3 0.5 0.3 0.3 0.1 0.4-0.5 1-0.6 1.7-1.6 6.1 0 1 0.2 0.7 0.4 0.5 0.1 0.3-0.1 0.3-0.9 0.8-0.4 0.4-0.3 0.7-0.4 1.4-0.4 0.7-0.4 0.4-0.4 0.3-0.4 0.4-1 2.1-0.4 0.2-0.4 0.1-0.9 0.4-0.4 0.5-0.8-2-0.7-0.8-1.5-0.9-3.9-1.6-0.3-1.3 0-1.5-0.1-1.1-3.8-4.1-5.2-3-17-6.1-1.5 0.3-2.3 1.6-1 0.4-1.5-0.4-2.1-1.5-1.8-0.4-1-0.1-0.3-0.2-0.2-0.5-0.6-0.7-1.1-0.6-0.9 0.3-0.7 0.5-0.1 0.3-8.9-2.9-4.3-0.6-1-0.7-0.8-0.7-1.2-0.7-1.8 0.1-1.2 0.7-1 0.1-1.4-1.9 1.1-2.9-1.7-4.1-16.1-19.9-1-1.8-1.3-4.3-1.9-3-6.2-15.2-0.5-4.5-0.7-2.8-0.9-2 2.2-2.1 0.9-1.6-0.4-1.3-3.3-4.3-2.2-1.3 1.2-1.5 2.8-2.2 1.8-2.7 1.3-2.7 2.7 1.1 1.5-1.7 1.1-2.5 3.4-2.6-1.3-2.8-2.4-3-1.7-1.7 1-0.7 0.4-0.3 0.8-0.1 0-1.1-2.2 0 0-1.1 1.8-0.4 1.2-1.1 1.3-3 1.1 0 2.2 1.8 3.1-1.3 3.2-1.8 2.4 0.3 1 0-0.2-2.1 0.5-1 0.9-0.6 0.8-0.7 1.5-2.5 0.5 0.1 2 0.2 4.7-5-0.3-1.3-0.8-1-2.1-1.5-6.5 6.6-0.1-0.5 0-0.5-0.2-0.3-0.7 0.1 0-1 1.8-2 1.1-0.8 1.4-0.5-1.1-1.1-0.1 0.2-0.3 0.3-0.3 0.3-0.5 0.3 0.4-1.3 0.1-0.5 1.8-0.5 0-1-1.1 0 0-1.2 2.6-2.1 0.6-5.4-0.9-10.6-2.4-2.8-5.2-2.4-5.3-0.8-2.3 1.6-1 0-4.3-3.6-1.3-1.4 0.7 0.3 1-0.5 0.4-0.9-0.9-1.1-1.2-0.3-3 0.3-1.3 0-4.7-1.7-3.6-2.2-4.1-1.8-5.9-0.8 0-1.2 3.5-0.9 6.7-3 3.8-0.5-0.6-0.9-0.5-0.7-0.7-0.3-1.5-0.3 0-1 7.9-0.5 1.9 0.5 0.9 1.2-0.2 1.4-0.4 1.2 0.3 0.5 0.6 0.3 2.1 1.9 1 0 1.1-1.2 0-1-1.8-1.8 1.8-1.1 3.3-0.5 3.2 0.1 1.1 0.6 1.4 1.4 1.3 0.2 1-0.3 0.4-1-0.1-1.1-0.8-0.8 0-1.2 2.3-0.9 0.7-1.8-0.5-2.1-1.3-1.8-1.2-0.9-2.6-1.1-1.2-0.8-1.3-1.4 0-0.4 0.8-0.1 1.1-0.8 2.4-2.3 1.4 0.8 1.6 1.5 3.2 0 1.9-1.8-0.4-2.3-1.7-2.3-2-1.4-1.3-0.6 3.8-6.2 2.9-6.3 4.4-6 5.3-2.2 4.5 2.3 4.5 4 5.1 2.9 16 6 21.3 7.9 5.6 2.1z"></path>
        <!-- Limón -->
        <path id="Limón" class="province-path fill-slate-200" d="M669.9 115.6l10.4-2.5 5.5-2.8 0.5-4.4-1.4-5.7-0.1-3.6-1.6-0.8 0.5-2.1-0.3-1-0.4-0.1-1.2-2.9-1.2-0.3 1.5-0.2 0.8 0.4 0.5-0.1 0.9 0.5 0 0.3-0.4 0.3 0 0.5 0.6-0.1 0.8-0.7 0.2-0.7 0.7 0.2 2.6 1.3 3.2 3.7 4 7.5 2.9 7.9-0.4 5.1-2.3-2.9-4.2-10.3 2.7 12.9-0.3 5.1-4.5 4 2.4-0.5 1.6-1.1 1.6-1.4 2-1.3-0.7 0.8-0.2 1 0.3 1.1 0.6 1.4 0.6-1.9 0.7-3.7 0.9-2 7.6 21.2 9.6 22.8 11.3 19 30.2 39.6 2.4 1.8 10 12.4 6.2 6.1 3.8-2.1 1.4 1 4.2 0.7 0.9 1.2 0.1 3 0.5 2.5 1.1 2.2 2.1 2.2 7.3 10.9 2.4 1.7 9.1 12.3 6.9 6.5 4-1.2 0.9 2.5 0.9 6.5 1.4 2.9 2.5 1.9 10.6 3.7 3.7 0.4 3.7-0.1 3.5 0.2 3.1 1.7 3.9 6 2.7 1.6 0.1 0.1 1.7 6-0.5 0-0.7 0.1-2.4-1.3-2.4-0.4-0.4 0.6-0.7 1.1-0.7 5.9 0 0.3-1 2-2.1 0.3-2.9-0.5-2.8-0.8-1.6-0.8-1.5-1.7-0.1-0.1-2-3.8-0.1-0.1-1.6-1.8-0.1 0-0.7 0.4-0.4 0.2-1.6-0.6-6.5-5.6-0.7-0.3-1.1-0.4-3.9-1.6-1.4-0.5-2.1-0.9-2.9 0.4-2.9 2.5-1.8 2.5-0.3 1.5 0.6 1 0.8 1.5 0.5 0.9 0.8 3.3 0.3 1.1 0.7 0.9 1 0.3 0.4 0.3 0.3 0.2-0.2 1.3-0.5 0.2-1.9 1.1-8.4 1.2-3 1-0.8 1.4-0.5 0.9-0.4 3 0.2 13.3 0.2 19.2 0.4 26.2-0.1-0.1-1.5-1.3-0.5-0.3-2.6-0.8-2.6-2.7-0.8-1.2-1-2.7-0.9-1.4-0.6-0.4-1-0.4-5.4-1.5-0.5-0.3-0.5-0.4-0.4-0.9-0.3-0.5-1.7-8.6-0.5-1.6-0.4-0.7-0.2-0.3-0.3-0.3-0.4-0.2-5.6-3.3-0.6-0.4-1.2-1.1-6.1-8-0.7-0.2-1.1-0.1-3.4 0.2-2.1 0.4-0.6 0-0.8-0.1-1.1-0.4-2.5-1.2-1.5-1-0.8-0.4-2.9-1-0.8-0.4-0.3-0.2-0.4-0.2-2.9-2.5-0.7-0.5-0.8-0.4-0.5 0-0.7 0.1-1.1 0.6-0.6 0.4-0.4 0.4-1.9 2.6-0.2 0.3-0.7 0.2-3 0.3-0.8 0.2-0.6 0.3-0.6 0.6-0.3 0.2-0.3 0.2-0.4 0.1-0.3-0.2-0.4-1.2-0.1-0.6-0.2-0.4-0.5-0.5-0.5-0.3-4.2-1.2-1.9-1.4-0.6-0.5-1.3-1.9-5.2-14.4-0.6-1.7-1-2.2-0.4-0.4-0.5-0.6-0.3-0.4-0.9-2.2-0.3-1.9-0.4-1.6 0.6-4.9 2.2-4.5 9.1-11 3.5-9 1.3-2 4.8-5.8 6.7-8.4 1-2.8-0.4-2.9-1.8-5.7-0.2-3.5 0.5-2.8 1.2-2.7 2-2.8 0.4-0.6-3.2-0.7-16.7-0.4-22.8-0.2-4.1-1.5-15.5-7.2-9.5-4.5-6.9-3.3-19.8-9 2.1-7.2 1.1-1.4 1.4-1.4 7.4-8 0.5-0.8 2-4.1 0.4-1.2 0.2-0.8-0.1-0.5 0.1-1.9 0.5-2.3 0.2-1.2-0.1-0.8-0.1-0.3-0.5-0.6-0.4-0.7-0.3-0.8-0.5-1.7-2.1-4-0.2-0.6-0.4-2.3 0.1-1 0.1-0.7 0.6-1.1 0.4-0.7 1.3-2.4 0.3-0.4 0.4-0.2 0.4 0 0.4-0.1 0.4-0.2 0.3-0.3 0.6-0.6 1.4-2.2 0.9-3.4 0-0.8 0-0.4-0.7-1.6-0.1-0.5 0-0.5 0.1-1.3 0.1-0.6-0.1-0.4-0.2-0.4-0.2-0.3-0.5-0.6-0.2-0.4-0.2-0.3 0-1 0.9-6.9-0.1-1.5 0.2-4.9 0.2-1.4 0.3-1 0.2-0.3 0.6-0.5 1.4-0.9 1.5-0.8 0.6-0.4 1.6-1.8 2.7-1.7 1.6-0.5 0.9-0.2 4.6-0.4 1.7-0.5 0.6 0 0.6 0.1 0.7 0.2 0.1-0.1 0-0.3-0.3-0.5-0.4-0.5-0.6-0.5-1.3-0.8-0.7-0.5-0.5-0.6-0.5-0.6-0.1-0.6-0.1-0.7 0.5-3.3 0-0.5-0.1-0.6-0.5-0.7-0.6-0.7-0.7-0.8-0.4-0.3-0.4-0.2-0.5-0.2-1.8-0.5-0.5-0.4z"></path>
        <!-- Puntarenas -->
        <path id="Puntarenas" class="province-path fill-slate-200" d="M508.5 189.2l3.5 5.7 1 1.2 0.3 0.2 1 0.7 0.9 0.1 1.3-0.1 3-0.5 2.2-0.7 1-0.6 0.4-0.1 0.4-0.2 1.2 0.2 2.8 1.8 0.9 2.5 0.6 0.9 1 0.8 0.2 0.2 0.1 0.6-0.2 0.8-1.7 3.1-0.4 1.2-1 3.6 0 0.6 0.2 0.6 0.8 1.6 0.2 0.9 0.1 0.6-0.6 4.1 0.7 2.5 1.7 3.7 1 1.4 2.5 3.2 1.3 2.1 2.6 3.1 1 1.6 0.1 0.3 0.2 0.5 0.2 0.3 0.3 0.1 0.5 0 1.2-0.4 1.3-0.9 0.4-0.2 1.1 0.6 2 3.3-0.1 1.1-0.2 0.4-0.5 0.5-0.8 0.4-2.4 1-7.8 5.1-1.8 0.5-1.2 1.2-2.9 4.6-1.1 0.5-0.3 0.2-0.2 0.4-0.1 0.4 0 1-0.2 0.8 0.5 0.6 1.1 0.8 3.3 1.3 2.6 0.7 2.1 0.1 1.8 0.4 1.5 1.1 3.4 4.6-1.4 1.2 1.5 0.6 1.1 0.7 0.7 0.5 0.5 0.5 0.3 0.3 0.9 1.3 0.8 1.5 0.1 0.6 0.1 0.9-0.2 1.3-0.3 0.6-0.3 0.4-0.3 0.3-0.4 0.1-0.4 0.1-0.5 0.1-3-0.2-1 0.1-0.4 0.2-0.4 0.2-0.3 0.2-0.2 0.4-0.1 0.3-0.1 0.5 0.1 0.4 1.2 4 0.4 2-0.1 3.1 0 0.5 0.4 0.9 3.5 6.2 0.1 0.3 1.1 5.4 0.4 1.2 0.7 1.5 1 1.3 1.1 1 0.5 0.4 1.6 0.2 4.9-0.8 1.1 0.4 0.4 0.1 0.6 0 2.5-0.7 0.5 0 0.5 0.1 0.3 0.2 0.4 0.2 0.7 0.8 0.3 0.3 0.4 0.2 0.4 0.1 0.4 0.1 0.5-0.1 0.4-0.2 0.5-0.4 0.9-1.9 0.3-0.4 0.4-0.4 1.8-1.4 0.5-0.6 0.4-0.4 0.1-0.4 0.1-1-0.5-3.2 0-0.4 0.4-0.2 0.9-0.2 1.8 0 4.2-0.8 6.7-0.3 2.3 0.2 0.9 0.7 0.6 0.5 1.1 1.3 0.2 0.3 1.7 0.3 5.6-0.2 2.1 0.9 2.3 0.2 7.1-0.6 1.4 0.1 0.4 0.2 0.5 0.4 0.4 0.7 0.4 1.3 0 0.7 0 0.6-0.3 1.4-0.1 1 0 0.5 0.3 0.6 0.5 0.6 1.2 1.1 1.3 0.5 0.7 0.1 1.4-0.2 2.1-0.1 1.4 0.2 0.8 0.3 0.4 0.3 0.4 0.6 0.3 0.8 0.3 2 0 1-0.1 0.7-0.4 0.7-0.4 0.8 0.6 1 3.5 1.6 2.5 4.9 3.6 3.6 10.4 6.9 2.4 0.8 0.2-0.4 0.3-0.3 0.3-0.2 0.3-0.3 0.4-0.1 0.4-0.2 0.4 0 0.5 0 0.4 0.1 0.5 0.3 0.6 0.6 1.1 2 0.2 0.7 0.7 3 0.2 0.4 5.1 5.2 1 1.4 0.6 1-0.2 1.6 0 1 0.2 1.8 1.1 3.2 0.7 1.5 0.4 0.7 0.6 0.6 1.1 1 7.9 3.6 1.1 0.3 0.5-0.1 0.4-0.1 0.3-0.2 0.2-0.3 1.4-2 0.3-0.2 0.4-0.2 0.4-0.2 0.5-0.1 0.5 0 0.4 0 0.4 0 0.5 0.1 1.5 0.8 2.2 2.1 3.6 4.4 0.5 1 0.1 0.4 0.1 0.4 1.2 4.2 0.1 0.3 0.5 0.6 1 1.3 14.4 9.3 0.3 0.2 1.7-0.1 1.4-0.2 0.4-0.1 0.5 0.1 0.4 0.2 0.7 0.5 0.7 0.8 0.3 0.3 0.7 0.4 0.4 0.1 0.4 0.1 0.5 0 0.3-0.2 0.3-0.2 0.3-0.2 1.7-2.4 0.6-0.6 0.5-0.3 0.3-0.2 0.4-0.2 0.3-0.3 0.2-0.6 0.1-0.8-0.5-3.7 0.1-0.6 0.3-0.9 1.2-2.2 0.3-1-0.1-1.9-0.2-0.9-0.2-0.6-0.2-0.3-0.1-0.5-0.2-0.3-0.3-0.2-0.4 0-0.4 0-0.4 0-0.4-0.1-0.3-0.2-0.2-0.3-0.3-0.3-0.4-0.1-1.4-0.3-0.3-0.2-0.2-0.3 0-0.5 1.5-8 0.1-0.4 0.6-0.8 4.3-4.9 0.3-0.6 0.4-0.9 1.1-3.9 0.5-0.9 0.4-0.6 3.4-3.6 4.2 1.2 0.5 0.3 0.5 0.5 0.2 0.4 0.1 0.6 0.4 1.2 0.3 0.2 0.4-0.1 0.3-0.2 0.3-0.2 0.6-0.6 0.6-0.3 0.8-0.2 3-0.3 0.7-0.2 0.2-0.3 1.9-2.6 0.4-0.4 0.6-0.4 1.1-0.6 0.7-0.1 0.5 0 0.8 0.4 0.7 0.5 2.9 2.5 0.4 0.2 0.3 0.2 0.8 0.4 2.9 1 0.8 0.4 1.5 1 2.5 1.2 1.1 0.4 0.8 0.1 0.6 0 2.1-0.4 3.4-0.2 1.1 0.1 0.7 0.2 6.1 8 1.2 1.1 0.6 0.4 5.6 3.3 0.4 0.2 0.3 0.3 0.2 0.3 0.4 0.7 0.5 1.6 1.7 8.6 0.3 0.5 0.4 0.9 0.5 0.4 0.5 0.3 5.4 1.5 1 0.4 0.6 0.4 0.9 1.4 1 2.7 0.8 1.2 2.6 2.7 2.6 0.8 0.5 0.3 1.5 1.3 0.1 0.1 0 1.7 4.7-2 1.5 0 1.1 0.9 0.5 1.2 0.5 1.2 0.7 1 0.9 0.6 3.6 1.5 7.2 5.4 7.2 2.5 2.1 1.4 4.1 6.9 0.5 1.3 0.1 0.2-0.1 0.2-0.6 0.9-1.6 2.7-4.7 2.8-16.3 6.7-1.8 1.4-0.5 0.7-1.1 1.3 0.8 0.7 1.3 0.8-0.1 2.2-0.1 0.2-1.3 1.5-1.3 0.8-2 1.2-1.4 0.9-0.2 0.2-1.1 1.2-0.2 2.4 0.8 2.3 1.4 2.1 4.9 5.5 2.7 3.8 1.9 4.1 1.3 4.8 0.7 8.3 0.1 1.8 0.1 1.1-0.5 5.6-1.4 4.7-2.7 3.2-0.8 1.1-4.1 2-4.5 1.4-4.5 2.3-0.5 0.5-0.6 0.5-0.6 0.7-2.9 2.7-2.4 2.3-1 0.6-0.9 0.5-5.3 3-1 0.8-0.4 0.3-0.2 2 1.5 1.6 4.4 2.6 0.8 0.9 1.5 2.2 0.9 0.7 1 0.1 1.9-0.8 1.5 0.2 2.7 1.5 1.1 1.6 0.7 5.1 5.2 11.4 2.7 6 0.1 0.2 0.4 0.7-0.8 7.1-0.4 1.3-0.6 2.3-2.2-1.7 0.3-2.4 1.2-2.7 0.7-2.4-0.5-2-10.7-18.5-3.8-4-19.6-14.3-5.4-5.3 4.6-5.7 0.9-0.5 0.9-1.6 1.7-2.1 1.1-2.5-1-2.5-5.2-6.5-0.8-1.8-0.1-2.4 1.1-0.8 2-0.6 2.4-1.6-1.8-0.5-4.6 0.2-2.3-0.8-1.2-1.4-3.1-6.2 0.5-0.8 0.3-0.6 0.3-0.9 1.1 0 1.5 2.6 0.4 1.3 0.2 2.1 0.7 0.4 4.7-1.9 0-1.2-2.1-0.9-2.3-1.7-2-2-1.1-1.9-1.1 0-1.2 1.9-2.9 0.1-3.3-0.3-2.4 0.5-1.2-2.2-1.8-2.2-2.2-1.2-2.3 1.2-5-3-1.4-2.4 1-3.3-1.1-0.1-1.1 0.1 0.7-2.6-2.3-1.3-3.3-0.7-2.6-0.9-1 1.9-0.8-0.1-1.1-0.8-1.5 0-0.8 0.9-0.2 1.1-0.6 1-2.2 0.4-5.2-0.8-2.1 0.8-0.8 3.2 1.2-1 0.9 0 5.6 8.3 0.7 2.6 3.3 5.1 1.2 1.5 2.1 1.1 5.9 1.8 2.4 0.3 2.1 1.3 2.1 2.5 2 1.7 1.9-1.2 0.1 4-0.3 1.6-0.9 1.1 0 1.1 2.3 3.2 1 5.6-0.4 5.8-1.8 4-3.5 0.1-5.8-1.8-5.4-2.7-2.6-2.1 1 0 0.7 0.5 0.6 0.3 2.1 0.2-3-1.3-1.3-0.8-1.3-1.2 0 2.3-9.1-4-3.2-0.5-9.7 1.2-2.7 0-2.2-1.1-2.2-2.2-3.8-5-13.7-12.8-0.9-1.5-0.7-0.1-3.2-1.4-1-0.6-0.5-4.9 4.8-7.5 1.1-1.3 2.5-1.4 1.7-0.7 0.8 0.5 0.5 0.9 1.1-1.1 3.8-5.9 1.1-1.1-2-2.5 2.4-2.9 4.3-2.3 3.9-1 0-1-3.4-0.4-1.8 0.1-1.1 1-1.9 2-1.8 0.8-0.6-1.5 0.7-2.7 2.2-2.7 3.9-1.9 1.8-1.2 0.8-1.8-1-1.7-2-1.1-1.9-1.5-0.4-2.8 3.1 1.6 1.4 0.5 2 0-1-1.2-1.2-0.9-2.2-1.2-1-0.8-0.5-0.7-0.9-0.5-1.8-0.1 1.9-1.2-0.3-0.8-1.1-0.7-0.5-0.5 0.7-1.8 0.8-1.3 1.1-1.1 1.6-1.4-4.2-11-0.8-1.4-2.6-2.8-1.1 1-3.5-4.6-3.2-5.4-4.2-4.2-6.3-1.1 0.4-4.2-3.5-3.5-4.8-2.4-3.5-1-12.4-11.9-12.2-5.7-1.9-1.5-15.2-6-1 0-1 0.8-0.9 0-0.7-0.7-0.6-1.3-2.2 1-1.3-1.1-1.5-1.5-2.7-0.5 1.7-2.9-2.2-4.2-4.1-3.6-4-1.4 0 1.1 1.4 0.3 0.9 0.4 2.1 1.5-4.1-0.7-6.5-3.9-4.1-0.9-4-0.3-21.1-5.9-4.1-0.3-1.9 0.3-2 0.7-2.1 0.4-2.1-0.3-1.9-1.6-0.6-1.9-0.7-1.5-2.2-0.5 0.4 0.6 0.2 0.5 0.4 1.2-2.6-2.1-5.9-3.8-1.1-2.4-0.6-2.2-1.4-1.1-1.7-0.7-1.7-1-0.6-1.6 0.3-1.7-0.5-1.1-2.4 0.1 0.6-1.8-0.2-1.8-0.4-1.6 0-1.5 0.9-1.8 2.7-2.7 1.1-2.7 1.1-1.3 1.1-1.8 0.5-2.3-0.5-1.9-1.3-1.7-2.4-2.4-6.4-9.6-1.8-1.4-2.6-1.1 0.4-2.4 2.2-3.7-3.9-3.2-0.7-1.6 0.8-2.3-4.5-1.4-14 1.4 0-1.2 2-0.8 2.4-0.2 5.5 0 0-1.1-5-0.2-4.5-0.8-4.1-1.4-3.7-2.1-4.8-3.9-0.7-0.9-1-0.2-2-1.4-1.5-1.5 0.8-0.7-2.6-1.4-6.5-6.1-3.5-1.7-1.6-1.5-1-0.4-0.8 0.4-0.7 0.6-0.9 0.1-1.3-1.1 0.9-1.7 0.3-1.1 3.1-1 1.3 0.1 0.5 0.1 0.5 0 1-0.1 0.9-0.2 0.4 0 0.5 0.1 0.3 0.2 0.6 0.4 0.3 0.3 0.4 0.1 0.4 0.1 0.4 0 0.3 0 0.8-0.3 0.6-0.1 0.5 0 0.5 0.1 0.8 0.3 1.4 0.8 0.3 0.3 1.2 1 1.9 2.4 0.6 0.6 1.2 1 1.5 0.8 0.4 0.1 0.4 0.1 0.4 0 0.3-0.3-0.1-0.6-0.6-1.7-0.2-0.9 0-0.5 0.2-1 0.4-0.7 0.7-0.9 2.9-2.6 0.7-0.4 3-1.3 0.3-0.5 0.3-0.5 0.1-1.2-0.1-0.6-0.3-0.4-0.5-0.6-0.2-0.3-0.1-0.4-0.1-0.4 0-0.4 0.1-0.6 1-2 0.1-0.5 0.4-3.1 0.7-2.1 0.1-0.4-0.1-0.4-0.1-0.5-0.2-0.3-1.2-1-0.2-0.4-0.2-0.3-0.1-0.4 0-0.5 0.1-0.5 0.3-0.5 0.5-0.7 0.7-0.7 0.9-0.6 1.4-0.8 0.6-0.5 1.4-1.4 0.9-0.7 0.5-0.2 0.7-0.1 1.2-0.1 0.8 0.1 0.9 0.3 0.7 0.3 2.5 2z m-69.9 94.7l0.4-0.5 0.9-0.4 0.4-0.1 0.4-0.2 1-2.1 0.4-0.4 0.4-0.3 0.4-0.4 0.4-0.7 0.4-1.4 0.3-0.7 0.4-0.4 0.9-0.8 0.1-0.3-0.1-0.3-0.4-0.5-0.2-0.7 0-1 1.6-6.1 0.6-1.7 0.5-1-0.1-0.4-0.3-0.3-2.3-0.5-0.4-0.2-0.3-0.2-0.2-0.3-0.2-0.9-0.2-1-0.3-0.7-0.2-0.4-0.2-0.3-0.4-0.7-0.9-0.8-0.7-1-0.3-0.2-0.3-0.2-1.2-0.4-1.1-0.6-0.9-0.2-1.5 0-0.4-0.1-0.4-0.2-0.7-0.4-0.4-0.1-1.4-0.3-0.5 0-0.5 0-1.5 0.2-0.6-0.1-0.7-0.4-0.6-0.5-0.5-0.7-0.3-0.9 0.7-1.3 1.4-1.3 3.9-1.9 1.6-0.5 1.1-0.1 0.3 0.2 0.2 0.3 0.3 0.3 0.4 0.1 0.7-0.2 4.1-2.3 0.8-0.4 3.4-0.8 1-1.3 1.6-5.2 3.6 3.2 9.5 3.9 1.3 0.7 1.1-0.4 2.5 1 6.1 3.5 2.8 0.9 3 0.1 2.9-1.2 1.8 1.5 4 2.5 1.8 1.5 0 1-3.1 0.8 0.1 2.3 1.9 2.7 2.1 2-1.3 0.4-1.2 0.9-1.9 2 2.3 1 2.8 0.3 5.7-0.1 0 1-2.3 1.5-2.8 1.2-2.4 1.6-1.1 2.8-0.6 0.7-3.7 2.1-0.7 1.2-0.8 2.9-0.6 1.3-5-2.5-2.6-0.2-1.2 2.1 0.7 1.3 2.5 3.1-0.4 0.7-5.1 2.5-0.9 0.2-0.6 0.8-3.7 1.9-0.8 1.3-3.4 11-1.5 2.8-1.9 2.5-1.1 0-4.4-9.1-13.2-17.9 0-0.1z m15.4-59.9l1.6 0.3 0.9 0.8 1.2 0.3 1.7 0 0 1-1.9 0.7-2.4 0.6-2.7 0.2-2.7-0.3-2.7-1.2-1.5-1.4-2.2-4.1 3-1 1.3-0.1 5.1 0.9 4.6 1.4 0 1.1-5.4 0 1.5 0.8 0.6 0z m-310.6 730.4l-2.9 0.1 2-3.5 1.9-1.5 2.2-1.3 2.2-0.4 0 1.6-0.1 2-2.1 2.3-3.2 0.7z m505.6-507.7l2-1 2.3-0.1-0.2 1.9-1.2 0.5-2-0.4-0.9-0.9z"></path>
        <!-- Heredia -->
        <path id="Heredia" class="province-path fill-slate-200" d="M601.1 246.6l-0.3-1.4 0-0.8 0-0.5 0.1-0.5 0.8-1.2 2.9-3.1 0-0.4 1.9-24.3 0.2-22 0.3-18.4 0.3-25.8 0.4-34.3 0-0.7 1.4 0.2 1.9-0.3 3 2.9 1.8 0.7 1.8-1.4 1.1 0 1.9 1.9 3.9-2.5 2.7 0.6 1.9-1.9 2.1-0.3 1.7 1.2 0.8 2.7 9.5 7.6 1 0.5 1.5 0.2 1.6-0.3 2.2-1.6 1-0.3 4.3 0.9 0.6-0.4 3.2-3.8 10.5-4 0.8-0.2 0.5 0.4 1.8 0.5 0.5 0.2 0.4 0.2 0.4 0.3 0.7 0.8 0.6 0.7 0.5 0.7 0.1 0.6 0 0.5-0.5 3.3 0.1 0.7 0.1 0.6 0.5 0.6 0.5 0.6 0.7 0.5 1.3 0.8 0.6 0.5 0.4 0.5 0.3 0.5 0 0.3-0.1 0.1-0.7-0.2-0.6-0.1-0.6 0-1.7 0.5-4.6 0.4-0.9 0.2-1.6 0.5-2.7 1.7-1.6 1.8-0.6 0.4-1.5 0.8-1.4 0.9-0.6 0.5-0.2 0.3-0.3 1-0.2 1.4-0.2 4.9 0.1 1.5-0.9 6.9 0 1 0.2 0.3 0.2 0.4 0.5 0.6 0.2 0.3 0.2 0.4 0.1 0.4-0.1 0.6-0.1 1.3 0 0.5 0.1 0.5 0.7 1.6 0 0.4 0 0.8-0.9 3.4-1.4 2.2-0.6 0.6-0.3 0.3-0.4 0.2-0.4 0.1-0.4 0-0.4 0.2-0.3 0.4-1.3 2.4-0.4 0.7-0.6 1.1-0.1 0.7-0.1 1 0.4 2.3 0.2 0.6 2.1 4 0.5 1.7 0.3 0.8 0.4 0.7 0.5 0.6 0.1 0.3 0.1 0.8-0.2 1.2-0.5 2.3-0.1 1.9 0.1 0.5-0.2 0.8-0.4 1.2-2 4.1-0.5 0.8-7.4 8-5.8 0.6-3.1 4-1 1-0.7 0.2-3.5 0.3-3.1 0.6-6.9 0.6-0.8 0.3 0.1 0.8 0.6 1.3 3.6 5.4 2.1 2.2 0.4 1.3 0.2 3.9 1.3 1.4 0.8 0.6 0.5 0.6 0.2 1.2-1 3.2-2 5.3-3 1.8-4.2 1.4-1.6 0.3-4.1-0.4-0.7 0.1-5.8 2.6-1.8-0.8-3.1-1.5-2.8 0.4z"></path>
        <!-- San José -->
        <path id="San José" class="province-path fill-slate-200" d="M542.5 267.9l1.1 0 0.3-0.3 0.2-1.2 0.3-0.6 2.9-3.7 0.1-0.5-0.1-0.4 0.5-0.6 1-0.8 2.7-1.4 1.9-1.8 0.2-0.4 0.1-0.2 1.3-0.8 4.9-2.2 7-0.5 3.8-0.8 3.1 0.9 3.1 0.5 0.6 0.2 0.8 0.2 1.9 0.2 0.8 0.3 2.8-0.4 10.6-3 4.4-1.4 2.3-2.6 2.8-0.4 3.1 1.5 1.8 0.8 5.8-2.6 0.7-0.1 4.1 0.4 1.6-0.3 4.2-1.4 3-1.8 2-5.3 1-3.2-0.2-1.2-0.5-0.6-0.8-0.6-1.3-1.4-0.2-3.9-0.4-1.3-2.1-2.2-3.6-5.4-0.6-1.3-0.1-0.8 0.8-0.3 6.9-0.6 3.1-0.6 3.5-0.3 0.7-0.2 1-1 3.1-4 5.8-0.6-1.4 1.4-1.1 1.4-2.1 7.2 2.2 7.7 0.4 0.6 0.6 0.7 1.3 1.3 1.4 0.9 0.7 0.4 0.3 0.2 3.2 3.6 0.6 0.9 0.4 1.4 0.3 4.2 0.7 3.5-0.3 1.3-0.5 0.7-0.6 0.5-0.9 0.3-1.9 0.2-2 2.2-0.5 0.2-0.6 0.1-0.5-0.1-0.3-0.2-1.5-0.3-4.1 0.1-0.2 0.1-7.2 2.6-4.2 6.9-0.3 1.3 0.3 0.2 0.6 0.3 3.1 1.4-4.5 7.4-1.2 1.3-1.9 1.3-2.8 2.6-1.1 1.7-0.5 1-0.1 0.7 0 0.5 0.1 0.5 0.2 0.4 0.2 0.3 0.4 0.2 0.4 0 0.5-0.1 1.9-0.7 1.3-0.4 0.4 0 1 0.1 0.9 0.2 5.8-1.3 1.3 0.2 0.4 1.5 0.3 0.8 0.3 0.8 1 2 3.1 1 0.8 0.7 0.1 0.4 0.1 0.3 1.4 2.4 3.5 4.6 0.8 0.7 0.5 0.1 1.9 0.7 3.2 1.6 0.8 0.2 0.4-0.1 0.4-0.2 0.4-0.2 0.7-0.1 1.2 0.1 0.7 0.2 0.4 0.3 0.3 0.3 1.2 2 1.1 2.3 0.1 0.4 0.3 0.7 0.6 1.3 0.8 1.3 0.6 0.6 0.4 0.4 0.5 0.1 3.4 0.7 0.8 0 3-0.3 1.8 2.4 0.4 0.4 0.8 0.5 2.4 0.8 0.7 0.4 0.4 0.4 0.2 0.4 0.5 1.7 0.3 2.1 0.3 0.3 0.3 0 2.2-1.1 0.8-0.3 0.4-0.1 1.9 0.2 0.5 0 0.5-0.1 0.4-0.1 0.4-0.1 0.4-0.2 0.3-0.2 0.3-0.3 0.2-0.3 0.8-1.4 0.6-0.7 1.9-0.6 4 4.2 1.4 1.2 1.5 0.7 0.4 0.2 16.7 10.1 5.2 14.4 1.3 1.9 0.6 0.5 1.9 1.4-3.4 3.6-0.4 0.6-0.5 0.9-1.1 3.9-0.4 0.9-0.3 0.6-4.3 4.9-0.6 0.8-0.1 0.4-1.5 8 0 0.5 0.2 0.3 0.3 0.2 1.4 0.3 0.4 0.1 0.3 0.3 0.2 0.3 0.3 0.2 0.4 0.1 0.4 0 0.4 0 0.4 0 0.3 0.2 0.2 0.3 0.1 0.5 0.2 0.3 0.2 0.6 0.2 0.9 0.1 1.9-0.3 1-1.2 2.2-0.3 0.9-0.1 0.6 0.5 3.7-0.1 0.8-0.2 0.6-0.3 0.3-0.4 0.2-0.3 0.2-0.5 0.3-0.6 0.6-1.7 2.4-0.3 0.2-0.3 0.2-0.3 0.2-0.5 0-0.4-0.1-0.4-0.1-0.7-0.4-0.3-0.3-0.7-0.8-0.7-0.5-0.4-0.2-0.5-0.1-0.4 0.1-1.4 0.2-1.7 0.1-0.3-0.2-14.4-9.3-1-1.3-0.5-0.6-0.1-0.3-1.2-4.2-0.1-0.4-0.1-0.4-0.5-1-3.6-4.4-2.2-2.1-1.5-0.8-0.5-0.1-0.4 0-0.4 0-0.5 0-0.5 0.1-0.4 0.2-0.4 0.2-0.3 0.2-1.4 2-0.2 0.3-0.3 0.2-0.4 0.1-0.5 0.1-1.1-0.3-7.9-3.6-1.1-1-0.6-0.6-0.4-0.7-0.7-1.5-1.1-3.2-0.2-1.8 0-1 0.2-1.6-0.6-1-1-1.4-5.1-5.2-0.2-0.4-0.7-3-0.2-0.7-1.1-2-0.6-0.6-0.5-0.3-0.4-0.1-0.5 0-0.4 0-0.4 0.2-0.4 0.1-0.3 0.3-0.3 0.2-0.3 0.3-0.2 0.4-2.4-0.8-10.4-6.9-3.6-3.6-2.5-4.9-3.5-1.6-0.6-1 0.4-0.8 0.4-0.7 0.1-0.7 0-1-0.3-2-0.3-0.8-0.4-0.6-0.4-0.3-0.8-0.3-1.4-0.2-2.1 0.1-1.4 0.2-0.7-0.1-1.3-0.5-1.2-1.1-0.5-0.6-0.3-0.6 0-0.5 0.1-1 0.3-1.4 0-0.6 0-0.7-0.4-1.3-0.4-0.7-0.5-0.4-0.4-0.2-1.4-0.1-7.1 0.6-2.3-0.2-2.1-0.9-5.6 0.2-1.7-0.3-0.2-0.3-1.1-1.3-0.6-0.5-0.9-0.7-2.3-0.2-6.7 0.3-4.2 0.8-1.8 0-0.9 0.2-0.4 0.2 0 0.4 0.5 3.2-0.1 1-0.1 0.4-0.4 0.4-0.5 0.6-1.8 1.4-0.4 0.4-0.3 0.4-0.9 1.9-0.5 0.4-0.4 0.2-0.5 0.1-0.4-0.1-0.4-0.1-0.4-0.2-0.3-0.3-0.7-0.8-0.4-0.2-0.3-0.2-0.5-0.1-0.5 0-2.5 0.7-0.6 0-0.4-0.1-1.1-0.4-4.9 0.8-1.6-0.2-0.5-0.4-1.1-1-1-1.3-0.7-1.5-0.4-1.2-1.1-5.4-0.1-0.3-3.5-6.2-0.4-0.9 0-0.5 0.1-3.1-0.4-2-1.2-4-0.1-0.4 0.1-0.5 0.1-0.3 0.2-0.4 0.3-0.2 0.4-0.2 0.4-0.2 1-0.1 3 0.2 0.5-0.1 0.4-0.1 0.4-0.1 0.3-0.3 0.3-0.4 0.3-0.6 0.2-1.3-0.1-0.9-0.1-0.6-0.8-1.5-0.9-1.3-0.3-0.3-0.5-0.5-0.7-0.5-1.1-0.7-1.5-0.6 1.4-1.2z"></path>
        <!-- Cartago -->
        <path id="Cartago" class="province-path fill-slate-200" d="M641.7 217.9l19.8 9 6.9 3.3 9.5 4.5 15.5 7.2 4.1 1.5 22.8 0.2 16.7 0.4 3.2 0.7-0.4 0.6-2 2.8-1.2 2.7-0.5 2.8 0.2 3.5 1.8 5.7 0.4 2.9-1 2.8-6.7 8.4-4.8 5.8-1.3 2-3.5 9-9.1 11-2.2 4.5-0.6 4.9 0.4 1.6 0.3 1.9 0.9 2.2 0.3 0.4 0.5 0.6 0.4 0.4 1 2.2 0.6 1.7-16.7-10.1-0.4-0.2-1.5-0.7-1.4-1.2-4-4.2-1.9 0.6-0.6 0.7-0.8 1.4-0.2 0.3-0.3 0.3-0.3 0.2-0.4 0.2-0.4 0.1-0.4 0.1-0.5 0.1-0.5 0-1.9-0.2-0.4 0.1-0.8 0.3-2.2 1.1-0.3 0-0.3-0.3-0.3-2.1-0.5-1.7-0.2-0.4-0.4-0.4-0.7-0.4-2.4-0.8-0.8-0.5-0.4-0.4-1.8-2.4-3 0.3-0.8 0-3.4-0.7-0.5-0.1-0.4-0.4-0.6-0.6-0.8-1.3-0.6-1.3-0.3-0.7-0.1-0.4-1.1-2.3-1.2-2-0.3-0.3-0.4-0.3-0.7-0.2-1.2-0.1-0.7 0.1-0.4 0.2-0.4 0.2-0.4 0.1-0.8-0.2-3.2-1.6-1.9-0.7-0.5-0.1-0.8-0.7-3.5-4.6-1.4-2.4-0.1-0.3-0.1-0.4-0.8-0.7-3.1-1-1-2-0.3-0.8-0.3-0.8-0.4-1.5-1.3-0.2-5.8 1.3-0.9-0.2-1-0.1-0.4 0-1.3 0.4-1.9 0.7-0.5 0.1-0.4 0-0.4-0.2-0.2-0.3-0.2-0.4-0.1-0.5 0-0.5 0.1-0.7 0.5-1 1.1-1.7 2.8-2.6 1.9-1.3 1.2-1.3 4.5-7.4-3.1-1.4-0.6-0.3-0.3-0.2 0.3-1.3 4.2-6.9 7.2-2.6 0.2-0.1 4.1-0.1 1.5 0.3 0.3 0.2 0.5 0.1 0.6-0.1 0.5-0.2 2-2.2 1.9-0.2 0.9-0.3 0.6-0.5 0.5-0.7 0.3-1.3-0.7-3.5-0.3-4.2-0.4-1.4-0.6-0.9-3.2-3.6-0.3-0.2-0.7-0.4-1.4-0.9-1.3-1.3-0.6-0.7-0.4-0.6-2.2-7.7z"></path>
    </g>
</svg>